<svg width="49" height="47" viewBox="0 0 49 47" fill="none" xmlns="http://www.w3.org/2000/svg">
<path d="M39.6577 14.7124C39.3193 14.1261 38.8348 13.6375 38.2513 13.2943C37.6679 12.9511 37.0054 12.765 36.3286 12.7541H11.2619L10.1261 8.32825C10.0113 7.90101 9.75527 7.52522 9.39967 7.26207C9.04406 6.99893 8.60984 6.86393 8.16772 6.87908H4.25106C3.73168 6.87908 3.23357 7.0854 2.86631 7.45266C2.49905 7.81992 2.29272 8.31803 2.29272 8.83741C2.29272 9.35679 2.49905 9.8549 2.86631 10.2222C3.23357 10.5894 3.73168 10.7957 4.25106 10.7957H6.67939L12.0844 30.8882C12.1991 31.3155 12.4552 31.6913 12.8108 31.9544C13.1664 32.2176 13.6006 32.3526 14.0427 32.3374H31.6677C32.0294 32.3363 32.3836 32.2351 32.6913 32.045C32.9989 31.8549 33.2479 31.5833 33.4106 31.2603L39.834 18.4137C40.1124 17.8301 40.242 17.1867 40.2112 16.5409C40.1805 15.895 39.9903 15.2669 39.6577 14.7124Z" fill="#00504B"/>
<path d="M13.0636 42.1292C14.6859 42.1292 16.0011 40.814 16.0011 39.1917C16.0011 37.5693 14.6859 36.2542 13.0636 36.2542C11.4412 36.2542 10.1261 37.5693 10.1261 39.1917C10.1261 40.814 11.4412 42.1292 13.0636 42.1292Z" fill="#00504B"/>
<path d="M32.6469 42.1292C34.2692 42.1292 35.5844 40.814 35.5844 39.1917C35.5844 37.5693 34.2692 36.2542 32.6469 36.2542C31.0246 36.2542 29.7094 37.5693 29.7094 39.1917C29.7094 40.814 31.0246 42.1292 32.6469 42.1292Z" fill="#00504B"/>
</svg>
