<svg width="39" height="39" viewBox="0 0 39 39" fill="none" xmlns="http://www.w3.org/2000/svg">
<path d="M7.8 37.0499C7.8 37.0499 4.875 37.0499 4.875 34.125C4.875 31.2 7.8 22.425 19.5 22.425C31.2 22.425 34.125 31.2 34.125 34.125C34.125 37.0499 31.2 37.0499 31.2 37.0499H7.8ZM19.5 19.5C21.8273 19.5 24.0592 18.5754 25.7049 16.9298C27.3505 15.2842 28.275 13.0522 28.275 10.725C28.275 8.39768 27.3505 6.16572 25.7049 4.52009C24.0592 2.87446 21.8273 1.94995 19.5 1.94995C17.1727 1.94995 14.9408 2.87446 13.2951 4.52009C11.6495 6.16572 10.725 8.39768 10.725 10.725C10.725 13.0522 11.6495 15.2842 13.2951 16.9298C14.9408 18.5754 17.1727 19.5 19.5 19.5Z" fill="#00504B"/>
</svg>
