<svg width="104" height="104" viewBox="0 0 104 104" fill="none" xmlns="http://www.w3.org/2000/svg">
<g clip-path="url(#clip0_121_1376)">
<path d="M34.3457 84.8626C33.902 83.6927 33.3979 82.3639 32.7758 81.9753C31.6717 81.6046 30.4881 81.539 29.3498 81.7854L29.3775 81.7782C28.0312 82.0027 26.6522 81.934 25.3348 81.5766L25.2963 81.5654L25.2651 81.5535C24.873 81.4035 24.5144 81.1773 24.2102 80.8881L24.2264 80.9014C22.942 79.6803 23.0009 77.675 23.0663 75.7364C23.2246 74.6149 23.1028 73.4715 22.7116 72.4085L22.7154 72.4171C22.2775 71.9493 21.7197 71.6105 21.1026 71.4377L21.115 71.4425C20.6607 71.2681 20.1706 71.1123 19.6806 70.9564C19.1521 70.7893 18.6259 70.616 18.1342 70.4273C17.5223 70.2564 16.9503 69.9664 16.4508 69.5738C15.9514 69.1812 15.5344 68.6938 15.2239 68.1396L15.2277 68.1482C15.0059 67.2623 14.9727 66.3396 15.1303 65.44C15.2879 64.5403 15.6327 63.6839 16.1425 62.926L16.1207 62.9641C16.7114 61.9698 17.0409 60.8422 17.0784 59.6863L17.073 59.7378C16.5551 58.751 15.8025 57.9068 14.8815 57.2796L14.8415 57.2535C13.3579 56.0024 11.8204 54.7056 11.778 52.9363C11.9139 52.043 12.2345 51.1878 12.7195 50.4253C13.2045 49.6628 13.8431 49.0098 14.5946 48.508L14.5749 48.5219C15.4937 47.8274 16.222 46.9119 16.6922 45.8604L16.6982 45.8449C16.8266 45.1194 16.1748 43.8589 15.602 42.7466C14.7022 41.0161 13.7767 39.2222 14.4203 37.5447C15.0639 35.8673 16.9518 35.1528 18.7787 34.4578C19.9486 34.0141 21.2773 33.51 21.666 32.8879C22.0188 31.7794 22.0845 30.5996 21.857 29.4588L21.863 29.4896C21.6434 28.6092 21.6103 27.6926 21.7658 26.7987C21.9213 25.9047 22.2619 25.0531 22.7658 24.2986L22.7441 24.3366C23.9653 23.0522 25.9706 23.1111 27.9091 23.1765C29.0826 23.3376 30.2092 23.2022 31.2382 22.8187L31.2296 22.8225C31.9714 21.9382 32.4739 20.8784 32.6891 19.7444L32.681 19.7841C32.8158 18.8843 33.1363 18.0223 33.622 17.253C34.1078 16.4836 34.7482 15.8236 35.5025 15.3149L35.4829 15.3288C36.0863 15.127 36.7235 15.0462 37.3582 15.0912C37.9928 15.1362 38.6123 15.306 39.1811 15.591L39.1624 15.5838C39.6604 15.7749 40.1631 15.9999 40.6659 16.2249C41.1344 16.4368 41.6029 16.6487 42.0573 16.8231C42.6346 17.1074 43.279 17.2275 43.92 17.17L43.8977 17.1722C44.8606 16.6633 45.7136 15.9195 46.3528 14.9794L46.3788 14.9395C47.6331 13.457 48.9299 11.9196 50.6961 11.876C51.1085 11.8667 51.5188 11.9391 51.9031 12.0892L51.9374 12.1024L51.9342 12.1012C53.2374 12.7618 54.3086 13.6548 55.1488 14.7126L55.1135 14.6741C55.7853 15.6097 56.6996 16.3444 57.7578 16.7991L57.7703 16.8038C58.4958 16.9322 59.7562 16.2805 60.8686 15.7076C62.6189 14.8119 64.416 13.8876 66.0934 14.5312C67.7708 15.1748 68.4853 17.0627 69.1791 18.8927C69.6228 20.0626 70.127 21.3914 70.749 21.78C71.8544 22.1466 73.0376 22.2111 74.1762 21.9667L74.1454 21.9728C75.4926 21.7487 76.8725 21.8189 78.19 22.1786L78.2286 22.1899L78.2597 22.2018C78.6643 22.357 79.0191 22.586 79.3147 22.8672L79.2984 22.8538C80.5829 24.075 80.5239 26.0803 80.4585 28.0188C80.2974 29.1923 80.434 30.3158 80.8132 31.3467L80.8094 31.3381C81.2486 31.8061 81.8087 32.1433 82.4278 32.3125L82.4153 32.3077C82.8697 32.4821 83.3597 32.638 83.8485 32.797C84.3759 32.9672 84.9032 33.1374 85.3949 33.326C86.0071 33.4975 86.5794 33.7879 87.0793 34.1807C87.5792 34.5734 87.9969 35.0607 88.3084 35.6149L88.3045 35.6063C88.5244 36.4924 88.5564 37.4148 88.3983 38.314C88.2402 39.2132 87.8956 40.0693 87.3867 40.8273L87.4084 40.7892C86.8171 41.7835 86.4886 42.9119 86.4538 44.0682L86.4581 44.0199C86.9626 44.9846 87.7095 45.8389 88.6508 46.4749L88.6908 46.501C90.1732 47.7553 91.7107 49.0521 91.7542 50.8182C91.6165 51.7108 91.2955 52.5652 90.8112 53.3275C90.327 54.0898 89.6902 54.7436 88.9408 55.2477L88.9604 55.2338C88.0428 55.9208 87.3137 56.8287 86.841 57.873L86.8338 57.8917C86.7054 58.6172 87.3572 59.8776 87.93 60.99C88.8332 62.7397 89.7587 64.5336 89.1151 66.211C88.4715 67.8884 86.5824 68.606 84.7524 69.2999C83.5825 69.7435 82.2549 70.2446 81.8651 70.8697C81.5001 72.0257 81.4541 73.197 81.6728 74.302L81.668 74.268C81.888 75.1478 81.9214 76.0639 81.7661 76.9574C81.6108 77.8509 81.2703 78.702 80.7664 79.456L80.7882 79.4179C79.5689 80.7067 77.5617 80.6435 75.6231 80.578C74.5009 80.4194 73.3569 80.5424 72.294 80.9359L72.3026 80.932C71.5608 81.8163 71.0583 82.8762 70.8431 84.0102L70.8512 83.9704C70.7161 84.8696 70.3957 85.7309 69.9102 86.4997C69.4247 87.2685 68.7847 87.928 68.0309 88.4365L68.0505 88.4226C67.4478 88.6255 66.8109 88.7074 66.1764 88.6637C65.5419 88.62 64.9223 88.4515 64.3531 88.1679L64.3717 88.175C63.8738 87.984 63.371 87.7589 62.8683 87.5339C62.4103 87.3213 61.9463 87.1218 61.4769 86.9358C60.9 86.6502 60.2552 86.5302 59.6142 86.5888L59.6365 86.5867C58.6514 87.1063 57.8085 87.8591 57.1814 88.7794L57.1553 88.8194C55.9011 90.3018 54.6042 91.8393 52.8381 91.8828C52.4256 91.8922 52.0154 91.8197 51.631 91.6696L51.5968 91.6565L51.5999 91.6577C50.3524 91.0306 49.2568 90.1387 48.3897 89.0443L48.4218 89.0816C47.7505 88.1458 46.8355 87.412 45.7763 86.9598L45.7639 86.955C45.0384 86.8266 43.778 87.4783 42.6656 88.0512C40.9133 88.9427 39.1194 89.8681 37.4388 89.2233C35.7583 88.5785 35.0469 86.6918 34.3488 84.8638L34.3457 84.8626Z" fill="#FF9903"/>
<path class="tex" d="M34.9231 58.2678L36.6418 41.5501L30.83 56.6974L27.8723 55.5626L35.8964 34.6491L40.0193 36.231L38.5924 50.0445L43.3954 37.5263L46.3233 38.6497L38.2991 59.5632L34.9231 58.2678ZM50.8164 43.8011L48.5811 49.627L53.0924 51.3579L51.9461 54.3455L47.4348 52.6146L45.0848 58.7393L50.7613 60.9173L49.615 63.9049L40.6521 60.466L48.6763 39.5525L57.6392 42.9914L56.4929 45.9791L50.8164 43.8011ZM60.1364 67.9418L63.2171 56.3394L57.7463 67.0247L53.235 65.2938L58.9288 43.4862L62.1255 44.7128L57.5606 61.8809L65.4717 45.9966L68.6386 47.2117L63.9083 64.4535L71.9847 48.4956L74.8529 49.596L64.4984 69.6154L60.1364 67.9418Z" fill="white"/>
</g>
<defs>
<clipPath id="clip0_121_1376">
<rect width="80" height="80" fill="white" transform="translate(28.6577) rotate(20.991)"/>
</clipPath>
</defs>
</svg>
