<svg width="66" height="62" viewBox="0 0 66 62" fill="none" xmlns="http://www.w3.org/2000/svg">
<path d="M22.5587 60.9995C20.2805 60.9995 18.1425 60.115 16.5372 58.5106L3.54717 46.5618C1.8862 44.9034 1 42.7628 1 40.4863C1 38.2108 1.8862 36.0719 3.49494 34.4623C5.10455 32.8527 7.24431 31.9682 9.51987 31.9682C11.7754 31.9682 13.8978 32.8387 15.5021 34.4214L22.5552 40.6091L50.2815 3.68123C50.332 3.61594 50.3851 3.55413 50.4443 3.49581C52.0539 1.88533 54.1946 1 56.4693 1C58.7448 1 60.8846 1.8862 62.4951 3.49581C65.7883 6.78989 65.8153 12.1341 62.5752 15.463L29.2469 58.3487C29.2025 58.4053 29.1547 58.4602 29.1033 58.5124C27.4371 60.1768 25.1877 61.0596 22.8233 60.9969C22.7345 60.9977 22.6475 60.9995 22.5587 60.9995ZM9.52074 35.4503C8.1749 35.4503 6.91002 35.9744 5.95766 36.9259C5.00618 37.8765 4.48299 39.1414 4.48299 40.4863C4.48299 41.8313 5.00705 43.0979 5.95766 44.0503L18.9477 55.9992C19.9471 56.9968 21.2111 57.6654 22.5587 57.6654L22.7563 57.8081C22.7998 57.8081 22.8433 57.8081 22.8877 57.8081L23.0801 57.6654C24.3946 57.6654 25.6299 57.0969 26.5692 56.1942L59.8878 13.2832C59.9322 13.2266 59.9792 13.1543 60.0323 13.103C61.9962 11.1373 61.9962 7.9329 60.0323 5.96898C59.0791 5.01662 57.8151 4.48821 56.4684 4.48821C55.1609 4.48821 53.9291 4.98093 52.988 5.8828L24.2127 44.2044C23.921 44.5918 23.4814 44.8399 22.9991 44.8895C22.5195 44.9391 22.0363 44.7868 21.6716 44.4664L13.1656 37.0042C13.1378 36.9798 13.1099 36.9529 13.0829 36.9259C12.1315 35.9735 10.8666 35.4503 9.52074 35.4503Z" fill="#039583" stroke="#039583"/>
</svg>
