<svg width="23" height="23" viewBox="0 0 23 23" fill="none" xmlns="http://www.w3.org/2000/svg">
<path d="M11.625 3C6.86038 3 3 6.86038 3 11.625C3 16.3896 6.86038 20.25 11.625 20.25C16.3896 20.25 20.25 16.3896 20.25 11.625C20.25 6.86038 16.3896 3 11.625 3ZM14.8416 13.8856L14.1461 14.755C14.1004 14.8121 14.044 14.8596 13.98 14.8949C13.916 14.9301 13.8456 14.9524 13.773 14.9605C13.7004 14.9686 13.6269 14.9623 13.5567 14.9419C13.4865 14.9216 13.421 14.8876 13.3639 14.842L11.0338 13.1128C10.871 12.9825 10.7395 12.8172 10.6492 12.6292C10.5589 12.4412 10.5121 12.2353 10.5121 12.0267V6.61694C10.5121 6.46936 10.5707 6.32782 10.6751 6.22346C10.7794 6.11911 10.921 6.06048 11.0685 6.06048H12.1815C12.329 6.06048 12.4706 6.11911 12.5749 6.22346C12.6793 6.32782 12.7379 6.46936 12.7379 6.61694V11.625L14.755 13.1031C14.8121 13.1487 14.8597 13.2052 14.8949 13.2693C14.9302 13.3333 14.9525 13.4037 14.9605 13.4764C14.9685 13.5491 14.9622 13.6226 14.9418 13.6928C14.9214 13.763 14.8874 13.8285 14.8416 13.8856Z" fill="#FF9903"/>
</svg>
