<svg width="19" height="22" viewBox="0 0 19 22" fill="none" xmlns="http://www.w3.org/2000/svg">
<path d="M9.05424 0C14.055 0 18.1085 4.05352 18.1085 9.05424C18.1085 12.8802 15.4201 17.0498 10.1129 21.6076C9.81779 21.8611 9.44154 22.0003 9.05251 22C8.66347 21.9997 8.28746 21.8598 7.99281 21.6057L7.64178 21.3012C2.56955 16.8623 0 12.7948 0 9.05424C0 4.05352 4.05351 0 9.05424 0ZM9.05424 5.57184C8.13065 5.57184 7.24489 5.93874 6.59181 6.59181C5.93874 7.24489 5.57184 8.13065 5.57184 9.05424C5.57184 9.97783 5.93874 10.8636 6.59181 11.5167C7.24489 12.1698 8.13065 12.5366 9.05424 12.5366C9.97783 12.5366 10.8636 12.1698 11.5167 11.5167C12.1698 10.8636 12.5366 9.97783 12.5366 9.05424C12.5366 8.13065 12.1698 7.24489 11.5167 6.59181C10.8636 5.93874 9.97783 5.57184 9.05424 5.57184Z" fill="#FF9903"/>
</svg>
