<svg width="23" height="23" viewBox="0 0 23 23" fill="none" xmlns="http://www.w3.org/2000/svg">
<path d="M19.8914 5.17051L17.4993 2.78066C17.3306 2.61118 17.13 2.47671 16.9092 2.38497C16.6883 2.29323 16.4515 2.24604 16.2123 2.24609C15.7249 2.24609 15.2667 2.43701 14.9231 2.78066L12.349 5.35469C12.1795 5.52343 12.0451 5.72399 11.9533 5.94486C11.8616 6.16572 11.8144 6.40254 11.8145 6.6417C11.8145 7.1291 12.0054 7.5873 12.349 7.93096L14.2313 9.81318C13.7907 10.7843 13.1781 11.6678 12.4231 12.4209C11.6701 13.1777 10.7867 13.7925 9.81543 14.2357L7.93321 12.3535C7.76447 12.184 7.5639 12.0496 7.34304 11.9578C7.12217 11.8661 6.88535 11.8189 6.64619 11.8189C6.15879 11.8189 5.70059 12.0099 5.35694 12.3535L2.78067 14.9253C2.61098 15.0943 2.47639 15.2953 2.38464 15.5165C2.2929 15.7378 2.24582 15.975 2.24609 16.2146C2.24609 16.702 2.43701 17.1602 2.78067 17.5038L5.16826 19.8914C5.71631 20.4417 6.47324 20.7539 7.25039 20.7539C7.41436 20.7539 7.57158 20.7404 7.72657 20.7135C10.7543 20.2148 13.7573 18.6044 16.1809 16.1831C18.6022 13.7641 20.2104 10.7633 20.7157 7.72656C20.8685 6.79893 20.5607 5.84434 19.8914 5.17051Z" fill="#FF9903"/>
</svg>
