<svg width="23" height="23" viewBox="0 0 23 23" fill="none" xmlns="http://www.w3.org/2000/svg">
<path d="M5.75 4.3125C4.9875 4.3125 4.25623 4.6154 3.71707 5.15457C3.1779 5.69373 2.875 6.425 2.875 7.1875V7.47644L11.5 12.121L20.125 7.47788V7.1875C20.125 6.425 19.8221 5.69373 19.2829 5.15457C18.7438 4.6154 18.0125 4.3125 17.25 4.3125H5.75ZM20.125 9.10944L11.8407 13.57C11.736 13.6264 11.6189 13.6559 11.5 13.6559C11.3811 13.6559 11.264 13.6264 11.1593 13.57L2.875 9.10944V15.8125C2.875 16.575 3.1779 17.3063 3.71707 17.8454C4.25623 18.3846 4.9875 18.6875 5.75 18.6875H17.25C18.0125 18.6875 18.7438 18.3846 19.2829 17.8454C19.8221 17.3063 20.125 16.575 20.125 15.8125V9.10944Z" fill="#FF9903"/>
</svg>
