<svg width="100" height="56" viewBox="0 0 100 56" fill="none" xmlns="http://www.w3.org/2000/svg">
<path fill-rule="evenodd" clip-rule="evenodd" d="M17.6213 14.8135H33.848L34.474 22.1316L37.1442 26.8096L42.2738 31.8583L49.8187 35.7259L39.7203 34.6375L34.799 32.5996L28.6944 28.9866L22.5197 23.1972L17.6213 14.8135ZM72.696 14.8135H83.6996L76.4334 26.2076L68.6858 31.3186L63.8058 34.2205L57.1726 35.5474L51.5022 35.7259L59.0471 31.8583L64.1766 26.8096L67.5664 19.6769L67.7536 14.8135H72.696ZM43.7296 22.151L48.9276 27.365L50.6603 30.0913L52.9301 26.5058L58.1946 22.1047L60.6815 27.1686L56.7414 31.3564L50.6603 35.7186L42.84 30.1086L38.5549 24.7886L36.4945 18.9474L43.7296 22.151ZM35.5233 34.9237L42.084 36.4768L48.3605 36.5784L43.6014 38.2818L38.0072 38.3152L27.6419 36.6132L20.7365 33.3596L12.3676 25.2193L18.926 22.7064L23.1386 27.4888L28.1183 31.0898L35.5233 34.9237ZM82.3948 22.7064L88.9532 25.2193L80.5841 33.3596L72.9359 36.9608L63.3136 38.3152L58.6951 38.2877L52.9603 36.5784L57.5904 36.5034L63.3136 35.665L71.603 32.1372L75.8004 30.0588L78.1822 27.4888L82.3948 22.7064Z" fill="#0FC1AF"/>
<path fill-rule="evenodd" clip-rule="evenodd" d="M17.6213 14.8135H33.848L28.5316 20.8338L17.6213 14.8135Z" fill="#41C1C3"/>
<path fill-rule="evenodd" clip-rule="evenodd" d="M83.6996 14.8135H72.696L70.7409 21.9303L83.6996 14.8135Z" fill="#0FC1AF"/>
<path fill-rule="evenodd" clip-rule="evenodd" d="M17.6213 14.8135L22.5197 23.1972L28.5316 20.8338L17.6213 14.8135Z" fill="#25A8A8"/>
<path fill-rule="evenodd" clip-rule="evenodd" d="M83.6996 14.8135L76.4334 26.2076L70.7409 21.9303L83.6996 14.8135Z" fill="#039583"/>
<path fill-rule="evenodd" clip-rule="evenodd" d="M12.3676 25.2192L20.7365 33.3594L20.8524 29.6434L12.3676 25.2192Z" fill="#0FC1AF"/>
<path fill-rule="evenodd" clip-rule="evenodd" d="M88.9532 25.2192L80.5841 33.3594L80.4685 29.6434L88.9532 25.2192Z" fill="#039583"/>
<path fill-rule="evenodd" clip-rule="evenodd" d="M34.474 22.1316L33.848 14.8135L28.5316 20.8338L34.474 22.1316Z" fill="#00504B"/>
<path fill-rule="evenodd" clip-rule="evenodd" d="M67.5664 19.6769L67.7536 14.8135L70.7409 21.9303L67.5664 19.6769Z" fill="#003A34"/>
<path fill-rule="evenodd" clip-rule="evenodd" d="M34.474 22.1316L28.6944 28.9865L28.5316 20.8337L34.474 22.1316Z" fill="#036762"/>
<path fill-rule="evenodd" clip-rule="evenodd" d="M67.5664 19.677L64.1766 26.8096L70.7409 21.9304L67.5664 19.677Z" fill="#00504B"/>
<path fill-rule="evenodd" clip-rule="evenodd" d="M28.6944 28.9865L22.5197 23.1971L28.5316 20.8337L28.6944 28.9865Z" fill="#0F8380"/>
<path fill-rule="evenodd" clip-rule="evenodd" d="M66.5682 29.3563L76.4334 26.2077L70.7409 21.9304L66.5682 29.3563Z" fill="#0CB19A"/>
<path fill-rule="evenodd" clip-rule="evenodd" d="M34.474 22.1316L28.6944 28.9865L35.9134 29.2171L34.474 22.1316Z" fill="#41C1C3"/>
<path fill-rule="evenodd" clip-rule="evenodd" d="M34.474 22.1316L37.1442 26.8095L35.9134 29.2171L34.474 22.1316Z" fill="#25A8A8"/>
<path fill-rule="evenodd" clip-rule="evenodd" d="M64.1766 26.8097L66.5682 29.3563L70.7409 21.9304L64.1766 26.8097Z" fill="#0F8380"/>
<path fill-rule="evenodd" clip-rule="evenodd" d="M34.799 32.5996L28.6944 28.9866L35.9134 29.2172L34.799 32.5996Z" fill="#003A34"/>
<path fill-rule="evenodd" clip-rule="evenodd" d="M68.6858 31.3186L76.4334 26.2075L66.5682 29.3561L68.6858 31.3186Z" fill="#0F8380"/>
<path fill-rule="evenodd" clip-rule="evenodd" d="M39.7203 34.6377L34.799 32.5997L35.9134 29.2173L39.7203 34.6377Z" fill="#00504B"/>
<path fill-rule="evenodd" clip-rule="evenodd" d="M63.8058 34.2206L68.6858 31.3187L66.5682 29.3562L63.8058 34.2206Z" fill="#0F8380"/>
<path fill-rule="evenodd" clip-rule="evenodd" d="M39.7203 34.6375L37.1442 26.8096L35.9134 29.2172L39.7203 34.6375Z" fill="#128480"/>
<path fill-rule="evenodd" clip-rule="evenodd" d="M39.7203 34.6375L42.2738 31.8583L37.1442 26.8096L39.7203 34.6375Z" fill="#003A34"/>
<path fill-rule="evenodd" clip-rule="evenodd" d="M66.5682 29.3562L59.0471 31.8583L64.1766 26.8096L66.5682 29.3562Z" fill="#00504B"/>
<path fill-rule="evenodd" clip-rule="evenodd" d="M39.7203 34.6374L42.2738 31.8582L49.8187 35.7258L39.7203 34.6374Z" fill="#0F8380"/>
<path fill-rule="evenodd" clip-rule="evenodd" d="M57.1726 35.5472L59.047 31.8582L51.5021 35.7258L57.1726 35.5472Z" fill="#0F8380"/>
<path fill-rule="evenodd" clip-rule="evenodd" d="M12.3676 25.2192L18.926 22.7063L20.8524 29.6435L12.3676 25.2192Z" fill="#09897E"/>
<path fill-rule="evenodd" clip-rule="evenodd" d="M88.9532 25.2192L82.3948 22.7063L80.4685 29.6435L88.9532 25.2192Z" fill="#0FC1AF"/>
<path fill-rule="evenodd" clip-rule="evenodd" d="M23.1386 27.4887L18.926 22.7063L20.8524 29.6435L23.1386 27.4887Z" fill="#00504B"/>
<path fill-rule="evenodd" clip-rule="evenodd" d="M78.1822 27.4887L82.3948 22.7063L80.4685 29.6434L75.8004 30.0587L78.1822 27.4887Z" fill="#00504B"/>
<path fill-rule="evenodd" clip-rule="evenodd" d="M23.1386 27.4888L28.1183 31.0898L20.8524 29.6435L23.1386 27.4888Z" fill="#036762"/>
<path fill-rule="evenodd" clip-rule="evenodd" d="M27.6419 36.6132L28.1183 31.0898L20.8524 29.6436L27.6419 36.6132Z" fill="#00B1A5"/>
<path fill-rule="evenodd" clip-rule="evenodd" d="M71.6473 34.3218L71.603 32.1372L75.8004 30.0588L77.2888 32.1393L71.6473 34.3218Z" fill="#0FC1AF"/>
<path fill-rule="evenodd" clip-rule="evenodd" d="M27.6419 36.6132L20.7365 33.3596L20.8524 29.6436L27.6419 36.6132Z" fill="#33F3EB"/>
<path fill-rule="evenodd" clip-rule="evenodd" d="M72.9359 36.9608L80.5841 33.3595L77.2887 32.1392L72.9359 36.9608Z" fill="#00504B"/>
<path fill-rule="evenodd" clip-rule="evenodd" d="M27.6419 36.6132L28.1183 31.0898L35.5233 34.9238L27.6419 36.6132Z" fill="#09897E"/>
<path fill-rule="evenodd" clip-rule="evenodd" d="M71.6473 34.3218L71.603 32.1372L63.3136 35.665L71.6473 34.3218Z" fill="#0F8380"/>
<path fill-rule="evenodd" clip-rule="evenodd" d="M27.6419 36.613L38.0072 38.3151L35.5233 34.9236L27.6419 36.613Z" fill="#003A34"/>
<path fill-rule="evenodd" clip-rule="evenodd" d="M72.9359 36.9608L63.3136 38.3152L71.6473 34.3218L72.9359 36.9608Z" fill="#0F8380"/>
<path fill-rule="evenodd" clip-rule="evenodd" d="M42.084 36.4767L38.0072 38.3151L35.5233 34.9236L42.084 36.4767Z" fill="#0F8380"/>
<path fill-rule="evenodd" clip-rule="evenodd" d="M58.6951 38.2877L63.3136 38.3152V35.665L58.6951 38.2877Z" fill="#216D67"/>
<path fill-rule="evenodd" clip-rule="evenodd" d="M42.084 36.4768L38.0073 38.3152L43.6015 38.2818L42.084 36.4768Z" fill="#0FC1AF"/>
<path fill-rule="evenodd" clip-rule="evenodd" d="M63.3136 35.665L57.5903 36.5035L58.695 38.2877L63.3136 35.665Z" fill="#328A88"/>
<path fill-rule="evenodd" clip-rule="evenodd" d="M42.084 36.4768L48.3605 36.5784L43.6014 38.2818L42.084 36.4768Z" fill="#17736F"/>
<path fill-rule="evenodd" clip-rule="evenodd" d="M57.5903 36.5034L52.9603 36.5783L58.695 38.2877L57.5903 36.5034Z" fill="#20534C"/>
<path fill-rule="evenodd" clip-rule="evenodd" d="M50.6603 35.7185L44.9003 27.5432L50.6603 30.0913V35.7185Z" fill="#33F3EB"/>
<path fill-rule="evenodd" clip-rule="evenodd" d="M50.6603 35.7185L44.9004 27.5432L42.84 30.1085L50.6603 35.7185Z" fill="#00B1A5"/>
<path fill-rule="evenodd" clip-rule="evenodd" d="M50.6603 35.7185L55.317 29.1094L56.7414 31.3563L50.6603 35.7185Z" fill="#00504B"/>
<path fill-rule="evenodd" clip-rule="evenodd" d="M48.9275 27.365L44.9003 27.5432L50.6603 30.0913L48.9275 27.365Z" fill="#15D3B3"/>
<path fill-rule="evenodd" clip-rule="evenodd" d="M52.9301 26.5059L55.317 29.1095L50.6603 30.0913L52.9301 26.5059Z" fill="#16D3B3"/>
<path fill-rule="evenodd" clip-rule="evenodd" d="M48.9275 27.3649L44.9003 27.5431L43.7296 22.1509L48.9275 27.3649Z" fill="#036762"/>
<path fill-rule="evenodd" clip-rule="evenodd" d="M52.9301 26.5058L55.317 29.1095L58.1946 22.1047L52.9301 26.5058Z" fill="#0CB19A"/>
<path fill-rule="evenodd" clip-rule="evenodd" d="M38.5549 24.7885L44.9003 27.5431L43.7296 22.1509L38.5549 24.7885Z" fill="#09897E"/>
<path fill-rule="evenodd" clip-rule="evenodd" d="M60.6815 27.1687L55.317 29.1095L58.1946 22.1047L60.6815 27.1687Z" fill="#00504B"/>
<path fill-rule="evenodd" clip-rule="evenodd" d="M38.5549 24.7887L36.4945 18.9475L43.7296 22.1511L38.5549 24.7887Z" fill="#00504B"/>
<path fill-rule="evenodd" clip-rule="evenodd" d="M38.5549 24.7886L44.9003 27.5432L42.8399 30.1086L38.5549 24.7886Z" fill="#0FC1AF"/>
<path fill-rule="evenodd" clip-rule="evenodd" d="M60.6815 27.1687L55.317 29.1095L56.7414 31.3565L60.6815 27.1687Z" fill="#003A34"/>
<path fill-rule="evenodd" clip-rule="evenodd" d="M57.1726 35.5472L59.047 31.8582L63.8058 34.2204L57.1726 35.5472Z" fill="#0FC1AF"/>
<path fill-rule="evenodd" clip-rule="evenodd" d="M72.696 14.8135H67.7535L70.7409 21.9303L72.696 14.8135Z" fill="#0F8380"/>
<path fill-rule="evenodd" clip-rule="evenodd" d="M50.6603 35.7185L55.317 29.1094L50.6603 30.0912V35.7185Z" fill="#0F8380"/>
<path fill-rule="evenodd" clip-rule="evenodd" d="M66.5682 29.3562L59.0471 31.8583L63.8059 34.2206L66.5682 29.3562Z" fill="#003A34"/>
<path fill-rule="evenodd" clip-rule="evenodd" d="M80.4685 29.6436L80.5841 33.3595L77.2888 32.1392L80.4685 29.6436Z" fill="#003A34"/>
<path fill-rule="evenodd" clip-rule="evenodd" d="M63.3136 35.665V38.3152L71.6473 34.3218L63.3136 35.665Z" fill="#10504A"/>
<path fill-rule="evenodd" clip-rule="evenodd" d="M72.9359 36.9608L77.2888 32.1392L71.6473 34.3217L72.9359 36.9608Z" fill="#0F8380"/>
<path fill-rule="evenodd" clip-rule="evenodd" d="M80.4685 29.6436L75.8004 30.0588L77.2887 32.1392L80.4685 29.6436Z" fill="#108380"/>
<path fill-rule="evenodd" clip-rule="evenodd" d="M13.0323 53.1466C13.1453 53.1648 14.5266 53.1753 14.5741 53.1367C14.6014 53.1147 14.6436 52.8812 14.6533 52.8236C14.7126 52.4692 14.7929 52.1107 14.8446 51.7487C14.9135 51.2649 15.0182 50.79 15.086 50.3129L15.2095 49.6106C15.264 49.3703 15.5691 47.6683 15.5841 47.4699C15.6612 47.4948 15.7225 47.8855 15.7483 47.9624L16.5617 50.8696C16.5641 50.8745 16.5714 50.8877 16.5735 50.8924L16.7504 51.6196L17.1566 51.6328C17.1974 51.4502 17.252 51.2989 17.3004 51.1104C17.3435 50.943 17.4045 50.7788 17.4488 50.6065L17.8712 49.0376C17.9175 48.872 17.9771 48.6899 18.0176 48.5293L18.1581 48.0072C18.1798 47.9285 18.2085 47.8398 18.2341 47.7567C18.2455 47.7192 18.2552 47.6724 18.2693 47.625L18.3027 47.5275C18.3048 47.5226 18.308 47.5161 18.3097 47.512C18.3115 47.5079 18.3138 47.5012 18.3171 47.4965C18.3904 47.587 18.3646 47.7309 18.391 47.8424C18.3977 47.8711 18.423 47.9472 18.4329 47.992L18.5204 48.5366C18.6304 49.1251 18.7553 49.7142 18.8351 50.3103L19.2666 52.7697C19.3077 53.2578 19.2487 53.1542 20.1006 53.1542C20.3434 53.1542 20.6503 53.1706 20.8855 53.1504C20.8952 53.0553 20.7978 52.5663 20.767 52.4147L20.5018 50.955C20.459 50.6255 20.3514 50.2597 20.31 49.8535C20.3018 49.7724 20.2857 49.7727 20.271 49.6794L19.841 47.3034C19.7972 46.9493 19.7019 46.5715 19.6432 46.2165L19.545 45.6687C19.4843 45.362 19.4024 45.0693 19.3787 44.7527C19.3684 44.6134 19.325 44.5206 19.3039 44.4001C19.2836 44.2827 19.2733 44.1217 19.2496 44.019L18.9096 42.2052C18.8949 42.0964 18.8495 41.9685 18.8401 41.8558C18.8313 41.7504 18.8125 41.5468 18.7694 41.4795L18.1217 41.4762C18.0569 41.6006 18.0842 41.6202 18.0472 41.7721C17.9736 42.075 17.8847 42.3632 17.8316 42.6799L17.5421 43.8698C17.4717 44.1136 17.3326 44.8741 17.2587 45.0731C17.2209 45.1753 17.2144 45.2672 17.1868 45.3699C17.1314 45.5759 17.037 46.1466 16.9566 46.2671C16.9 46.1632 16.851 45.8241 16.8117 45.6909C16.6759 45.2282 16.5333 44.4296 16.3837 43.8777L16.1713 42.9877C16.0839 42.6348 15.895 41.7282 15.807 41.4797C15.6732 41.468 15.5125 41.4765 15.3755 41.4759C15.1086 41.4751 15.1573 41.4335 15.1124 41.6673L14.9716 42.4247C14.9519 42.5576 14.9273 42.6682 14.8988 42.7858C14.8689 42.9102 14.8578 43.0571 14.839 43.1926C14.8044 43.4416 14.7237 43.7109 14.6941 43.9649C14.6818 44.0679 14.6659 44.0664 14.6545 44.1346L14.5547 44.7214C14.4374 45.218 14.4043 45.767 14.2849 46.2554C14.2547 46.3783 14.2409 46.5211 14.2139 46.6426C14.1875 46.7596 14.1608 46.908 14.1423 47.028L14.0059 47.7927C13.9666 47.9457 13.9613 48.0985 13.9203 48.2565C13.912 48.2881 13.9082 48.3197 13.9032 48.3508C13.8507 48.6686 13.8003 48.9887 13.7258 49.3092L13.0925 52.763C13.0743 52.8274 13.0282 53.0781 13.0323 53.1466ZM78.9473 51.84V50.8886L78.9476 50.871C78.9476 50.3785 78.927 47.9065 78.9526 47.6355C78.959 47.6349 78.9658 47.6341 78.9731 47.6335H79.8387C80.0837 47.6379 80.3242 47.6411 80.4885 47.6335H80.6847V47.606V46.4108H78.9476L78.9485 43.6307V43.6304L78.9487 42.9825V42.6761H78.9485V42.6685H79.0071H81.1537C81.1922 42.6287 81.1728 42.4349 81.1728 42.3799C81.1728 42.1783 81.1857 41.6214 81.1637 41.4929C81.0757 41.4675 77.5029 41.4639 77.3964 41.4915C77.3621 41.6861 77.3867 51.4528 77.3867 52.7922C77.3867 52.8683 77.3776 53.0258 77.3949 53.096C77.3958 53.0992 77.3996 53.1115 77.4002 53.1089C77.4011 53.1065 77.4037 53.1177 77.4061 53.1215V53.1364H77.426C77.5126 53.1782 77.8018 53.1528 77.8649 53.1528C78.4064 53.1528 80.8821 53.1733 81.1628 53.1472C81.1913 52.9962 81.1866 52.1265 81.1664 51.9512L78.9619 51.9506C78.9555 51.9275 78.9508 51.8888 78.9473 51.84ZM78.8995 43.6307C78.8971 43.9102 78.8957 44.2256 78.8951 44.542C78.8957 44.2253 78.8971 43.9096 78.8995 43.6307ZM81.1455 42.2921H81.1458L81.1476 41.5178L81.1455 42.2921ZM77.4061 53.1215L77.4137 46.978L77.4061 53.1215ZM78.8983 48.0449C78.8989 48.2656 78.9056 48.4924 78.9056 48.6996C78.9053 48.4924 78.8986 48.2656 78.8983 48.0449ZM89.3909 47.8354C89.339 47.4316 89.4141 46.0453 89.4997 45.6128C89.5437 45.3912 89.5684 45.1598 89.6227 44.9447C89.7919 44.273 90.0811 43.2675 90.637 42.8221C91.4044 42.2073 92.0403 43.5833 92.1958 44.1279C92.2116 44.1829 92.2248 44.2066 92.2436 44.2569C92.2662 44.3175 92.2727 44.3436 92.2932 44.4106C92.5044 45.0948 92.6557 46.0833 92.6687 46.7895C92.6775 47.261 92.6968 47.8828 92.6408 48.3271C92.5809 48.7997 92.5645 49.1907 92.4375 49.6829C92.265 50.3507 91.9881 51.3931 91.4255 51.8098C90.6288 52.3995 90.0644 51.082 89.8544 50.514C89.6555 49.9761 89.4349 48.8409 89.4123 48.2211C89.4073 48.0883 89.4059 47.9528 89.3909 47.8354ZM87.9861 47.34C87.9899 48.3253 88.0184 48.5322 88.1662 49.4295C88.1929 49.591 88.2185 49.7364 88.2636 49.8757C88.285 49.9416 88.2933 50.0291 88.3161 50.1005C88.4487 50.5084 88.4754 50.7109 88.6731 51.1777C88.8831 51.6735 89.1618 52.1771 89.5332 52.5555C89.7344 52.7606 89.8955 52.9195 90.1477 53.0618C90.417 53.2136 90.7282 53.3008 91.0465 53.3006C92.2597 53.2994 93.0239 52.0899 93.4143 51.1698C94.3404 48.9867 94.3283 45.6795 93.4149 43.4882C93.0479 42.6076 92.2545 41.3507 91.0283 41.3589C90.4507 41.3627 89.8723 41.6925 89.5314 42.1051C89.2313 42.4686 89.3534 42.3024 89.0489 42.7419C88.6321 43.3433 88.3091 44.5162 88.1592 45.2417C88.0348 45.8445 87.9835 46.6909 87.9861 47.34ZM100 41.6217V41.4935C99.9208 41.4601 98.5612 41.4546 98.4961 41.4906C98.44 41.5251 98.4262 41.6574 98.3825 41.7984C98.3476 41.9108 98.3347 42.0153 98.2987 42.123C98.1766 42.4856 98.0561 43.1124 97.9481 43.4048L97.5935 44.6784C97.5389 44.8978 97.4855 45.1123 97.4269 45.3277L97.1585 46.2812C97.1447 46.3344 97.1318 46.3886 97.1162 46.4448C97.1142 46.4521 97.0957 46.5214 97.0925 46.5308C97.071 46.5885 97.0875 46.5451 97.0722 46.5715C97.0707 46.5744 97.0643 46.5858 97.0631 46.5829C97.0617 46.5803 97.0567 46.5908 97.0529 46.594C97.015 46.4691 97.0429 42.3495 97.0402 41.6152C97.0399 41.5359 97.0432 41.5166 97.0162 41.4926C96.9481 41.4487 96.3996 41.4759 96.2679 41.4759C96.169 41.4759 95.558 41.4546 95.5187 41.4926C95.4574 41.5801 95.4991 44.0702 95.4991 44.405C95.4991 45.525 95.4697 53.0896 95.5143 53.1367C95.5387 53.1624 95.6595 53.1548 95.6976 53.1545C96.0109 53.1519 96.8475 53.1703 97.0326 53.1478C97.0561 52.981 97.0391 52.693 97.0391 52.5131C97.0391 51.8066 97.015 48.1737 97.0575 48.0736C97.093 48.1231 97.0707 48.0947 97.0881 48.16C97.0986 48.1995 97.0954 48.1878 97.1077 48.2302C97.123 48.2817 97.1338 48.3288 97.152 48.3847C97.1863 48.4895 97.2107 48.5887 97.24 48.7025C97.3978 49.3136 97.6023 49.9468 97.766 50.5956C97.8191 50.8072 97.8985 51.0138 97.9399 51.2295L98.4594 53.1335C98.673 53.1826 99.6961 53.1513 99.9894 53.1463C99.9765 52.9532 99.853 52.5909 99.8058 52.3887L99.4204 50.9448C99.3283 50.7145 98.885 48.9176 98.751 48.4365L98.4644 47.3651C98.4415 47.258 98.951 45.434 99.0188 45.1867L100 41.6217ZM56.7843 39.5743L55.6514 39.5714C55.6397 39.8591 55.63 39.9712 55.4578 40.1166C55.1765 40.3539 54.6412 40.3659 54.3373 40.126C54.1516 39.9796 54.1516 39.845 54.1443 39.5811C54.0196 39.555 53.1399 39.5609 52.9903 39.5784C52.9691 40.1649 53.1821 40.5093 53.5391 40.7566C54.5053 41.4259 56.1477 41.2131 56.6444 40.327C56.7772 40.0897 56.7986 39.91 56.7843 39.5743ZM74.3184 50.0183C74.2448 50.322 74.2826 50.315 74.1363 50.6615C74.0594 50.8441 73.9321 51.0337 73.8157 51.1701C73.3927 51.6673 72.7975 51.9503 72.1275 51.9591C71.9893 51.9608 72.0216 51.9427 72.0216 51.6691V47.927C72.0213 47.68 71.8925 47.5972 72.5388 47.687C72.8289 47.7274 72.7714 47.7125 73.0178 47.8082C73.4548 47.9776 73.7966 48.2556 74.053 48.6484C74.2378 48.9314 74.4252 49.5761 74.3184 50.0183ZM72.0216 42.7724C72.0216 42.6135 72.1536 42.6901 72.442 42.7042C72.5924 42.7115 72.7362 42.7498 72.8714 42.7882C73.1536 42.8681 73.3522 42.9936 73.5628 43.137C74.0274 43.4536 74.2662 43.9517 74.2697 44.5332C74.2736 45.2086 74.0207 45.5952 73.6012 45.9663C73.2853 46.2455 72.4511 46.5179 72.0269 46.4688L72.0216 42.7724ZM70.4939 41.5798L70.4983 53.1481C70.8474 53.1788 72.4525 53.1662 72.8588 53.0957C74.5428 52.8034 75.8895 51.521 75.8881 49.6881C75.8875 48.7807 75.5836 48.0619 74.9585 47.5243C74.6308 47.2425 74.5795 47.2548 74.407 47.1225L74.3639 47.0833C74.3988 46.9952 74.551 46.9253 74.6341 46.8668C75.8719 45.9958 76.128 44.2195 75.2703 42.9567C75.1398 42.7645 74.93 42.552 74.7611 42.4022C74.3985 42.0803 73.8682 41.7747 73.3935 41.66C72.5572 41.4578 72.3695 41.4759 71.4487 41.4759C71.271 41.4759 71.0932 41.4759 70.9154 41.4759C70.5285 41.4759 70.4939 41.4306 70.4939 41.5798ZM82.4353 42.6518C82.5741 42.6948 83.7231 42.6369 84.0003 42.6685H84.0006C84.032 42.672 84.0522 42.6767 84.0584 42.6828C84.0827 42.7223 84.066 42.6708 84.0742 42.7367C84.0944 42.8979 84.0751 50.0908 84.0751 50.5134C84.0751 51.3843 84.0587 52.2713 84.0763 53.1402C84.2376 53.1589 85.5133 53.1642 85.6142 53.132L85.6148 42.672L87.2639 42.6691C87.2877 42.5432 87.2851 41.5652 87.2563 41.4912C87.2255 41.4792 82.6498 41.4443 82.4391 41.4838L82.4353 42.6518ZM64.7932 41.4882C64.5723 41.528 63.3609 41.4634 63.311 41.5143C63.2679 41.5585 63.2934 50.2313 63.2934 51.6875C63.2934 52.154 63.2729 52.6679 63.2955 53.1282C63.4128 53.1642 66.5547 53.1437 67.2385 53.1411C67.3558 53.1408 67.4256 53.1212 67.4664 53.1683C67.5157 53.2253 67.4817 54.6321 67.4834 54.8369L68.9959 54.834L68.995 51.9582C68.8099 51.9509 68.1285 51.9977 68.0346 51.957C67.9853 51.8341 68.0193 47.2984 68.0193 46.7345C68.0193 46.3309 68.0431 41.7712 68.0132 41.5011L66.5163 41.5026L66.5101 51.9541C66.4254 51.9863 64.9023 51.9872 64.8035 51.955C64.7771 51.7832 64.7938 41.5901 64.7932 41.4882ZM50.1505 41.4797C49.9132 41.4593 49.225 41.4762 48.9091 41.4759C48.6225 41.4759 48.6319 41.4461 48.6313 41.5965C48.6284 42.4964 48.6125 52.9652 48.6395 53.1542L50.1534 53.149C50.1807 52.9687 50.1605 52.6196 50.1605 52.4215C50.1605 51.2752 50.1857 41.6612 50.1505 41.4797ZM52.2904 41.5798L52.2954 53.1496C52.6198 53.1671 53.4669 53.1604 53.8178 53.1522C53.8811 53.0553 55.0055 49.6182 55.1158 49.2755L55.5027 48.1C55.5197 48.0479 55.5561 47.9706 55.5713 47.9194L55.7626 47.3142C55.7846 47.2536 55.8063 47.1887 55.8283 47.1234C55.8553 47.0432 55.857 46.9873 55.9137 46.9291C55.9163 46.9338 55.9192 46.9358 55.9201 46.944C55.921 46.9522 55.9251 46.9551 55.926 46.9592C55.9538 47.0719 55.9354 52.2251 55.9351 52.8616C55.9351 53.1405 55.9025 53.1542 56.0424 53.1542C56.449 53.1542 57.0902 53.1674 57.4695 53.1507L57.4763 41.5798C57.4763 41.4742 57.4686 41.4844 57.366 41.4844C56.9582 41.4844 56.3176 41.471 55.9365 41.4897C55.6265 42.3823 55.3455 43.3509 55.026 44.2663C55.0034 44.331 54.9876 44.4068 54.965 44.4665C54.9392 44.5353 54.9195 44.6002 54.8972 44.6713C54.8101 44.9491 54.7306 45.196 54.6444 45.472C54.5628 45.7328 54.4549 46.0017 54.3783 46.2624C54.2985 46.5346 54.2111 46.7989 54.1217 47.054C54.0551 47.2449 53.9351 47.7204 53.8544 47.8565C53.8518 47.8524 53.8486 47.8407 53.848 47.843C53.8301 47.8977 53.8313 47.51 53.8313 47.4684L53.8333 41.5962C53.833 41.4874 53.8357 41.4844 53.726 41.4844H52.4021C52.3009 41.4844 52.2904 41.4757 52.2904 41.5798ZM37.0354 47.3473L38.6717 47.3455C38.7204 47.3672 38.6978 47.3432 38.7142 47.395V52.4215C38.7142 53.3275 38.5303 53.1475 39.4596 53.1475C39.6731 53.1475 40.0222 53.168 40.2196 53.1425C40.2563 53.0129 40.2307 47.6095 40.2307 47.3215C40.2307 47.1664 40.2522 41.665 40.2222 41.4958L38.7289 41.4897C38.6942 41.6647 38.7186 44.5531 38.7186 44.9918C38.7186 45.2955 38.7523 45.8846 38.7118 46.1548C38.5529 46.1884 37.2255 46.1811 37.0199 46.1612C36.963 45.9479 37.0527 41.5836 36.9938 41.5102C36.9729 41.4844 36.8638 41.4888 36.831 41.4891C36.5749 41.492 35.5828 41.4736 35.486 41.502L35.4799 53.1376C35.5981 53.1651 36.9504 53.1563 36.9903 53.1323C37.0307 53.0922 37.0061 48.5559 37.0061 47.7069C37.0061 47.5858 36.9853 47.4128 37.0354 47.3473ZM44.157 51.936C44.138 51.4382 44.1553 50.905 44.1553 50.4034L44.1567 47.3233C44.1749 47.2349 44.2175 47.2832 44.3847 47.359C44.5824 47.4485 44.905 47.6926 45.0456 47.8735C45.5527 48.5266 45.793 49.2726 45.6167 50.3083C45.5466 50.7206 45.3319 51.0747 45.1054 51.341C44.9282 51.5488 44.3841 51.9693 44.157 51.936ZM42.6346 53.144C43.864 53.2145 45.4046 52.8654 46.211 51.9673C46.4641 51.6852 46.7654 51.2354 46.8551 50.8271C46.8854 50.689 46.9505 50.4976 46.9693 50.3636C47.1156 49.3235 46.9728 48.3361 46.389 47.5047C45.9825 46.9262 45.3937 46.4676 44.7082 46.2341C44.157 46.0465 44.1529 46.2244 44.1553 45.8911C44.16 45.2417 44.1755 41.7045 44.1479 41.4847L42.6335 41.4871L42.6346 53.144ZM22.9688 53.1475C23.2269 53.1829 26.6818 53.1575 26.7188 53.1384C26.7211 53.1343 26.7238 53.1229 26.7244 53.1253C26.7253 53.1279 26.7288 53.115 26.7297 53.1115C26.747 53.0375 26.7379 52.9386 26.7379 52.8616C26.7376 52.6462 26.7493 52.1402 26.7326 51.9851C26.4492 51.9529 24.6437 52 24.5399 51.9702L24.5153 51.9594C24.4768 51.8944 24.4892 48.0528 24.5 47.6358C24.7071 47.5905 25.8573 47.649 26.2286 47.6209L26.2386 46.4474L24.5041 46.4401L24.4985 42.6819C24.7024 42.636 26.3219 42.6875 26.7261 42.6673C26.7587 42.5508 26.7578 41.5749 26.7211 41.5043C26.7015 41.4923 26.7346 41.4996 26.6792 41.4888C26.6569 41.4847 26.6507 41.4844 26.6282 41.4833C26.2853 41.4657 25.2246 41.4844 24.862 41.4844C24.5704 41.4844 23.1339 41.4657 22.9738 41.4929L22.9688 53.1475ZM30.2039 46.1744C30.1602 46.0623 30.1843 43.2069 30.1843 42.6805C30.1843 42.3331 30.2136 41.83 30.1778 41.5014H28.6847L28.6786 53.1376L30.181 53.1414C30.206 52.679 30.1843 52.156 30.1843 51.6875C30.1843 51.2377 30.1655 47.4365 30.1937 47.3438C30.2922 47.3157 31.7935 47.3168 31.8968 47.3455C31.922 47.5153 31.9038 51.8757 31.9038 52.403C31.9038 52.5774 31.8833 52.9912 31.9138 53.1367L33.3925 53.1384C33.4007 53.1156 33.4344 41.6337 33.3934 41.5043L31.9173 41.4967C31.8824 41.6082 31.9035 45.2148 31.9038 45.8723C31.9038 46.266 32.0361 46.1773 31.0024 46.1773C30.7501 46.1773 30.4506 46.1916 30.2039 46.1744ZM8.83528 47.6347C8.84525 47.5533 8.86373 47.5261 8.87224 47.464C8.88133 47.3994 8.87752 47.3411 8.88955 47.2721C8.91155 47.1495 8.92533 47.0181 8.94381 46.8989L9.00453 46.5747C9.0063 46.5706 9.01128 46.5683 9.01245 46.5598C9.01392 46.551 9.01774 46.5492 9.02126 46.5448L9.19139 47.6335C9.1996 47.7052 9.2175 47.7479 9.22424 47.8187L9.34891 48.7508C9.36563 48.8638 9.37531 49.0189 9.39878 49.1286C9.42078 49.231 9.45862 49.3223 9.45099 49.4634C9.33278 49.4745 8.65458 49.4801 8.56746 49.4572L8.83528 47.6347ZM8.33133 51.0826C8.34277 50.9533 8.39762 50.5134 8.43341 50.4083L9.58035 50.4104C9.63022 50.5099 9.77132 51.5725 9.79948 51.7656C9.82558 51.9439 9.97313 53.0723 10.0101 53.132C10.0406 53.1566 9.99865 53.1367 10.0485 53.1496C10.1192 53.168 11.5299 53.1525 11.5492 53.1513C11.5633 53.0419 11.4093 52.2225 11.3674 52.0346C11.341 51.9166 11.3324 51.787 11.304 51.6758C11.2497 51.461 11.2046 51.1678 11.1685 50.9512C11.128 50.7083 11.0825 50.4587 11.0394 50.2155C11.018 50.094 10.9802 49.9729 10.9684 49.8532C10.9567 49.735 10.9282 49.5966 10.9054 49.4859C10.8549 49.2416 10.8308 49.0045 10.7722 48.7634L10.3759 46.5668C10.3207 46.3459 10.2879 46.0629 10.243 45.8358C10.1943 45.5902 10.0253 44.5601 9.97606 44.3828C9.91534 44.163 9.90742 43.8742 9.8426 43.6523C9.80388 43.5195 9.75489 43.1086 9.70971 42.9245C9.63697 42.6278 9.53723 41.8479 9.4463 41.4762L8.58096 41.4783C8.51994 41.7121 8.4956 41.9497 8.44045 42.197L8.30375 42.919C8.27061 43.1724 8.21605 43.4352 8.18085 43.6708C8.12511 44.0427 8.02538 44.4369 7.98021 44.7702L7.59007 46.9543C7.57716 47.0549 7.53756 47.2068 7.52172 47.3051C7.44135 47.8067 7.32313 48.2867 7.25244 48.7555C7.18614 49.1953 7.06793 49.7496 6.98462 50.2079C6.93622 50.4742 6.89985 50.6902 6.85702 50.9492C6.83854 51.0607 6.80158 51.1979 6.78398 51.3074C6.7699 51.3969 6.75523 51.4045 6.74673 51.4867C6.73851 51.5669 6.73235 51.5971 6.72003 51.6699C6.70742 51.7446 6.69011 51.7949 6.67955 51.8441C6.66489 51.9105 6.66459 51.9661 6.64963 52.0352L6.4704 53.144C6.82505 53.1645 7.42903 53.1434 7.83794 53.1478L8.01658 53.1294L8.33133 51.0826ZM4.3622 52.0027C4.25161 51.6603 4.15745 51.3223 4.05713 50.9825C4.00932 50.8201 3.94537 50.6422 3.89404 50.4704C3.86998 50.3899 3.85033 50.2851 3.82305 50.2041L3.11288 47.932C3.06008 47.759 3.00728 47.5753 2.95888 47.4228C2.90285 47.2451 2.85739 47.0933 2.80664 46.9112C2.74504 46.6903 2.67933 46.5776 2.76352 46.3499C2.82424 46.1861 2.89141 46.0456 2.94744 45.8706L3.31939 44.9233C3.57753 44.302 3.81366 43.6152 4.06622 43.0091C4.19793 42.6931 4.29503 42.3916 4.44228 42.0463L5.08762 40.3519C5.1193 40.2661 5.14922 40.2196 5.18559 40.1245C5.24954 39.9559 5.53642 39.2685 5.54698 39.1494L4.02985 39.1553L3.09176 41.6872C2.92045 42.1464 2.63738 42.9746 2.47018 43.3577L1.6553 45.5961C1.60953 45.7035 1.57551 45.8179 1.52153 45.8463L1.51713 39.3156L0 39.3194L0.00616003 55.0834L1.52124 55.0804L1.52388 47.6598C1.58577 47.6952 1.77938 48.4386 1.81546 48.5661C1.90082 48.8646 2.01698 49.1839 2.09794 49.488L2.51917 50.8842C2.53648 50.9339 2.54117 50.948 2.55818 51.0091L2.65909 51.3495C2.89083 52.1159 3.11963 52.9309 3.3584 53.6781L3.63502 54.616C3.6931 54.7682 3.74649 55.0119 3.77494 55.0831L5.29941 55.0798L4.3622 52.0027Z" fill="#2B2A29"/>
<path fill-rule="evenodd" clip-rule="evenodd" d="M56.165 1.1937L59.2682 3.55241L54.2889 6.28864L50.6603 10.3064L47.0317 6.28864L42.0527 3.55241L45.1559 1.1937L50.6603 0L56.165 1.1937ZM46.0561 7.51102L48.8117 10.3383L50.6603 13.9492L52.5092 10.3383L55.2645 7.51102L59.8426 4.42508L63.2649 9.92241L56.8655 12.8246L53.1334 15.5956L50.6603 18.4065L48.1875 15.5956L44.4554 12.8246L38.0557 9.92241L41.4783 4.42508L46.0561 7.51102ZM41.3108 12.9209L45.666 15.3349L48.2277 18.062L50.6603 21.6806L53.0929 18.062L55.6546 15.3349L60.0101 12.9209L63.7208 11.2823L65.1919 17.7609L63.1051 18.2704L57.1377 20.7722L53.2103 23.7358L50.6603 26.7059L48.1106 23.7358L44.1831 20.7722L38.2155 18.2704L36.129 17.7609L37.6001 11.2823L41.3108 12.9209Z" fill="#FFB53C"/>
<path fill-rule="evenodd" clip-rule="evenodd" d="M50.6603 26.7059L48.1106 23.7359L50.6603 21.6807V26.7059Z" fill="#FA9604"/>
<path fill-rule="evenodd" clip-rule="evenodd" d="M50.6603 26.7059L53.2102 23.7359L50.6603 21.6807V26.7059Z" fill="#C16C05"/>
<path fill-rule="evenodd" clip-rule="evenodd" d="M46.2289 19.4109L48.1106 23.7359L50.6603 21.6806L46.2289 19.4109Z" fill="#FFB53C"/>
<path fill-rule="evenodd" clip-rule="evenodd" d="M55.092 19.4109L53.2102 23.7359L50.6603 21.6806L55.092 19.4109Z" fill="#7E3E00"/>
<path fill-rule="evenodd" clip-rule="evenodd" d="M46.2289 19.4108L48.2277 18.062L50.6603 21.6806L46.2289 19.4108Z" fill="#FF9F12"/>
<path fill-rule="evenodd" clip-rule="evenodd" d="M55.092 19.4108L53.0929 18.062L50.6603 21.6806L55.092 19.4108Z" fill="#9E5200"/>
<path fill-rule="evenodd" clip-rule="evenodd" d="M46.2289 19.4109L48.1106 23.7359L44.1832 20.7723L46.2289 19.4109Z" fill="#C16A01"/>
<path fill-rule="evenodd" clip-rule="evenodd" d="M55.092 19.4109L53.2103 23.7359L57.1377 20.7723L55.092 19.4109Z" fill="#BF6904"/>
<path fill-rule="evenodd" clip-rule="evenodd" d="M46.2289 19.4109L38.2155 18.2705L44.1831 20.7723L46.2289 19.4109Z" fill="#C47213"/>
<path fill-rule="evenodd" clip-rule="evenodd" d="M55.092 19.4109L63.1051 18.2705L57.1378 20.7723L55.092 19.4109Z" fill="#FFAD33"/>
<path fill-rule="evenodd" clip-rule="evenodd" d="M46.2289 19.4109L48.2276 18.0621L45.666 15.335L46.2289 19.4109Z" fill="#F37900"/>
<path fill-rule="evenodd" clip-rule="evenodd" d="M55.092 19.4109L53.093 18.0621L55.6547 15.335L55.092 19.4109Z" fill="#C07014"/>
<path fill-rule="evenodd" clip-rule="evenodd" d="M46.2289 19.4109L41.3108 12.9209L45.6659 15.3349L46.2289 19.4109Z" fill="#C16900"/>
<path fill-rule="evenodd" clip-rule="evenodd" d="M55.092 19.4109L60.0101 12.9209L55.6547 15.3349L55.092 19.4109Z" fill="#FF9903"/>
<path fill-rule="evenodd" clip-rule="evenodd" d="M46.2289 19.4109L41.3108 12.9209L38.2155 18.2704L46.2289 19.4109Z" fill="#9E5200"/>
<path fill-rule="evenodd" clip-rule="evenodd" d="M55.092 19.4109L60.0101 12.9209L63.1051 18.2704L55.092 19.4109Z" fill="#FFB53C"/>
<path fill-rule="evenodd" clip-rule="evenodd" d="M37.6001 11.2822L41.3108 12.9207L38.2155 18.2703L37.6001 11.2822Z" fill="#FFB53C"/>
<path fill-rule="evenodd" clip-rule="evenodd" d="M63.7208 11.2822L60.0101 12.9207L63.1051 18.2703L63.7208 11.2822Z" fill="#C16900"/>
<path fill-rule="evenodd" clip-rule="evenodd" d="M37.6001 11.2822L36.129 17.7608L38.2155 18.2703L37.6001 11.2822Z" fill="#FF9D0C"/>
<path fill-rule="evenodd" clip-rule="evenodd" d="M63.7208 11.2822L65.1918 17.7608L63.105 18.2703L63.7208 11.2822Z" fill="#86470A"/>
<path fill-rule="evenodd" clip-rule="evenodd" d="M46.1708 11.5618L38.0557 9.92238L41.4783 4.42505L46.1708 11.5618Z" fill="#FF9903"/>
<path fill-rule="evenodd" clip-rule="evenodd" d="M55.1501 11.5618L63.2649 9.92238L59.8426 4.42505L55.1501 11.5618Z" fill="#FFB53C"/>
<path fill-rule="evenodd" clip-rule="evenodd" d="M50.6603 5.15982L42.0526 3.55232L45.1558 1.1936L50.6603 5.15982Z" fill="#FF9903"/>
<path fill-rule="evenodd" clip-rule="evenodd" d="M50.6603 5.15982L59.2682 3.55232L56.165 1.1936L50.6603 5.15982Z" fill="#E28000"/>
<path fill-rule="evenodd" clip-rule="evenodd" d="M46.1708 11.5618L46.0561 7.51099L41.4783 4.42505L46.1708 11.5618Z" fill="#FFB53C"/>
<path fill-rule="evenodd" clip-rule="evenodd" d="M55.1501 11.5618L55.2645 7.51099L59.8426 4.42505L55.1501 11.5618Z" fill="#DF7500"/>
<path fill-rule="evenodd" clip-rule="evenodd" d="M46.1708 11.5618L46.0561 7.51099L48.8117 10.3382L46.1708 11.5618Z" fill="#DF7500"/>
<path fill-rule="evenodd" clip-rule="evenodd" d="M55.1501 11.5618L55.2645 7.51099L52.5092 10.3382L55.1501 11.5618Z" fill="#BE6C0C"/>
<path fill-rule="evenodd" clip-rule="evenodd" d="M46.1708 11.5619L50.6603 13.9493L48.8117 10.3384L46.1708 11.5619Z" fill="#C16900"/>
<path fill-rule="evenodd" clip-rule="evenodd" d="M55.1501 11.5619L50.6603 13.9493L52.5092 10.3384L55.1501 11.5619Z" fill="#A05707"/>
<path fill-rule="evenodd" clip-rule="evenodd" d="M46.1708 11.5618L38.0557 9.92236L44.4554 12.8245L46.1708 11.5618Z" fill="#C36E08"/>
<path fill-rule="evenodd" clip-rule="evenodd" d="M55.1501 11.5618L63.2649 9.92236L56.8655 12.8245L55.1501 11.5618Z" fill="#FF9903"/>
<path fill-rule="evenodd" clip-rule="evenodd" d="M46.1708 11.5618L48.1875 15.5956L44.4554 12.8245L46.1708 11.5618Z" fill="#7F3F01"/>
<path fill-rule="evenodd" clip-rule="evenodd" d="M55.1501 11.5618L53.1334 15.5956L56.8655 12.8245L55.1501 11.5618Z" fill="#C06A05"/>
<path fill-rule="evenodd" clip-rule="evenodd" d="M46.1708 11.5618L50.6603 13.9492L48.1875 15.5956L46.1708 11.5618Z" fill="#9E5200"/>
<path fill-rule="evenodd" clip-rule="evenodd" d="M55.1501 11.5618L50.6603 13.9492L53.1334 15.5956L55.1501 11.5618Z" fill="#7E3E00"/>
<path fill-rule="evenodd" clip-rule="evenodd" d="M50.6603 13.9492L48.1875 15.5956L50.6603 18.4065V13.9492Z" fill="#C16900"/>
<path fill-rule="evenodd" clip-rule="evenodd" d="M50.6603 13.9492L53.1334 15.5956L50.6603 18.4065V13.9492Z" fill="#C16900"/>
<path fill-rule="evenodd" clip-rule="evenodd" d="M50.6603 0L45.1558 1.1937L50.6603 5.15991V0Z" fill="#FFB53C"/>
<path fill-rule="evenodd" clip-rule="evenodd" d="M50.6603 0L56.165 1.1937L50.6603 5.15991V0Z" fill="#FF9903"/>
<path fill-rule="evenodd" clip-rule="evenodd" d="M50.6603 5.15999L42.0526 3.55249L47.0317 6.28872L50.6603 5.15999Z" fill="#E28000"/>
<path fill-rule="evenodd" clip-rule="evenodd" d="M50.6603 5.15999L59.2682 3.55249L54.2888 6.28872L50.6603 5.15999Z" fill="#C16900"/>
<path fill-rule="evenodd" clip-rule="evenodd" d="M50.6603 10.3064L47.0317 6.28864L50.6603 5.15991V10.3064Z" fill="#C16900"/>
<path fill-rule="evenodd" clip-rule="evenodd" d="M50.6603 10.3064L54.2888 6.28864L50.6603 5.15991V10.3064Z" fill="#9E5200"/>
</svg>
