<?xml version="1.0" encoding="utf-8"?><svg viewBox="0 0 49 47" xmlns="http://www.w3.org/2000/svg" xmlns:xlink="http://www.w3.org/1999/xlink"><style>:root>svg{display:none}:root>svg:target{display:block}</style><svg viewBox="0 0 21 21" id="artix" xmlns="http://www.w3.org/2000/svg"><g clip-path="url(#aa)"><path d="M3.898 17.328a2.2 2.2 0 00-.626-.485 2.185 2.185 0 00-.9-.247h-.139A2.18 2.18 0 001 16.96a2.25 2.25 0 00-.812.956c-.06.137-.106.28-.138.427a2.054 2.054 0 000 .905c.032.147.079.29.138.428.177.386.458.714.812.95.363.244.793.372 1.232.366a2.266 2.266 0 00.958-.208l.065-.036a.671.671 0 01.105-.051l.097-.037.05.076a.512.512 0 00.448.255.528.528 0 00.367-.15.479.479 0 00.167-.36v-1.687a2.117 2.117 0 00-.16-.793 2.335 2.335 0 00-.43-.673zm-.572 1.93a1.16 1.16 0 01-.635.62 1.186 1.186 0 01-.463.09c-.153 0-.304-.032-.443-.094a1.31 1.31 0 01-.375-.25 1.26 1.26 0 01-.265-.37 1.101 1.101 0 01-.006-.91 1.23 1.23 0 01.637-.634 1.134 1.134 0 01.907 0 1.245 1.245 0 01.641.633 1.143 1.143 0 01.001.92v-.004zm4.25-2.651c-.293.01-.58.074-.85.186-.26.107-.498.26-.702.454a2.192 2.192 0 00-.469.672 1.92 1.92 0 00-.178.82v1.756a.487.487 0 00.311.474.48.48 0 00.19.032.526.526 0 00.494-.281.46.46 0 00.045-.185v-1.732a1.137 1.137 0 01.338-.84 1.165 1.165 0 01.83-.339.554.554 0 00.376-.154.469.469 0 00.15-.35.566.566 0 00-.336-.478.495.495 0 00-.2-.035zm5.254 3.216a.438.438 0 00-.118-.15.53.53 0 00-.374-.138h-.01a.554.554 0 00-.375.137.98.98 0 01-.35.216c-.152.05-.31.074-.47.07-.164 0-.326-.032-.476-.097a1.155 1.155 0 01-.38-.264 1.19 1.19 0 01-.291-.839v-1.132h1.175a.486.486 0 00.356-.161.506.506 0 00.016-.726.464.464 0 00-.372-.137H9.986v-.988a.43.43 0 00-.154-.346.612.612 0 00-.403-.138.593.593 0 00-.397.138.43.43 0 00-.154.346v3.136a2.16 2.16 0 00.69 1.63c.216.198.47.353.744.455.29.107.597.162.906.16a2.11 2.11 0 00.83-.163 2.35 2.35 0 00.71-.473.39.39 0 00.098-.156.53.53 0 00.027-.194.484.484 0 00-.054-.186zm7.178.297l-1.336-1.326 1.334-1.326a.498.498 0 00.139-.362.477.477 0 00-.139-.354.524.524 0 00-.363-.157h-.006a.47.47 0 00-.339.147l-1.364 1.328-1.336-1.315a.61.61 0 00-.365-.159.461.461 0 00-.364.156.621.621 0 00-.155.363.4.4 0 00.138.332l1.365 1.346-1.365 1.346a.46.46 0 00-.138.358c.004.134.06.26.156.353a.451.451 0 00.368.138.606.606 0 00.37-.138l1.33-1.32 1.335 1.296a.508.508 0 00.38.168.49.49 0 00.478-.307.474.474 0 00.035-.202.507.507 0 00-.158-.364zm-5.418-3.379a.575.575 0 00-.108-.073.46.46 0 00-.252-.07.46.46 0 00-.252.07.575.575 0 00-.107.073.432.432 0 00-.158.332v3.438a.46.46 0 00.167.355.499.499 0 00.345.124h.018c.126.004.25-.04.344-.124a.46.46 0 00.167-.355v-3.438a.43.43 0 00-.164-.332zm.027-1.448a.462.462 0 00-.35-.151.52.52 0 00-.363.138.468.468 0 00-.162.343.5.5 0 00.138.388.569.569 0 00.385.146.464.464 0 00.347-.152.507.507 0 000-.716l.005.004z"/></g><g clip-path="url(#ab)"><path d="M10.079 5.58c-1.512 0-2.887 1.371-2.887 3.064.002.622.188 1.229.53 1.734.735-.461 1.53-.787 2.362-.787.832 0 1.626.326 2.361.787a3.113 3.113 0 00.531-1.734c-.005-1.693-1.381-3.065-2.897-3.065z"/><path d="M10.077 0c-3.711 0-6.72 8.32-6.72 12.203 0 3.014 1.813-.223 4.359-1.825a3.087 3.087 0 01-.53-1.813c.017-.65.234-1.275.62-1.781-.124.31-.187.644-.186.98 0 .69.258 1.353.72 1.84a2.39 2.39 0 001.737.763 2.39 2.39 0 001.738-.762c.46-.488.72-1.15.72-1.84 0-.337-.063-.67-.186-.981a3.07 3.07 0 01.618 1.781c.017.65-.17 1.287-.528 1.813 2.547 1.601 4.358 4.839 4.358 1.825C16.797 8.321 13.788 0 10.077 0z"/></g><defs><clipPath id="aa"><path d="M0 15.12h20.16V21H0z"/></clipPath><clipPath id="ab"><path d="M3.36 0H16.8v13.44H3.36z"/></clipPath></defs></svg><svg viewBox="0 0 49 47" id="cart" xmlns="http://www.w3.org/2000/svg"><path d="M39.658 14.712a3.916 3.916 0 00-3.33-1.958H11.263l-1.136-4.426A1.959 1.959 0 008.168 6.88H4.25a1.958 1.958 0 100 3.917h2.43l5.405 20.092a1.958 1.958 0 001.959 1.45h17.625a1.959 1.959 0 001.743-1.078l6.423-12.846a3.916 3.916 0 00-.176-3.702zM13.064 42.13a2.938 2.938 0 100-5.876 2.938 2.938 0 000 5.875zm19.583 0a2.938 2.938 0 100-5.876 2.938 2.938 0 000 5.875z"/></svg><svg viewBox="0 0 39 39" id="login" xmlns="http://www.w3.org/2000/svg"><path d="M7.8 37.05s-2.925 0-2.925-2.925 2.925-11.7 14.625-11.7 14.625 8.775 14.625 11.7c0 2.925-2.925 2.925-2.925 2.925H7.8zM19.5 19.5a8.775 8.775 0 100-17.55 8.775 8.775 0 000 17.55z"/></svg><svg viewBox="0 0 30 30" id="mail" xmlns="http://www.w3.org/2000/svg"><path d="M7.5 5.625a3.75 3.75 0 00-3.75 3.75v.377L15 15.81l11.25-6.056v-.379a3.75 3.75 0 00-3.75-3.75h-15zm18.75 6.257L15.444 17.7a.938.938 0 01-.888 0L3.75 11.882v8.743a3.75 3.75 0 003.75 3.75h15a3.75 3.75 0 003.75-3.75v-8.743z"/></svg><svg viewBox="0 0 30 30" id="map" xmlns="http://www.w3.org/2000/svg"><path d="M15 2.41c5.77 0 10.446 4.677 10.446 10.447 0 4.414-3.101 9.225-9.225 14.484a1.875 1.875 0 01-2.446-.003l-.405-.35c-5.852-5.122-8.816-9.815-8.816-14.13C4.554 7.087 9.23 2.41 15 2.41zm0 6.43a4.018 4.018 0 100 8.035 4.018 4.018 0 000-8.036z"/></svg><svg viewBox="0 0 28 28" id="search" xmlns="http://www.w3.org/2000/svg"><path d="M10.994 0a11 11 0 106.182 20.102l6.798 6.793a2.062 2.062 0 102.915-2.915l-6.792-6.798A11 11 0 0010.994 0zM4.12 11a6.875 6.875 0 1113.75 0 6.875 6.875 0 01-13.75 0z" opacity=".6"/></svg><svg viewBox="0 0 30 30" id="tel" xmlns="http://www.w3.org/2000/svg"><path d="M25.945 6.744l-3.12-3.117a2.368 2.368 0 00-1.678-.697c-.636 0-1.234.249-1.682.697l-3.358 3.357a2.37 2.37 0 000 3.36l2.456 2.456a11.54 11.54 0 01-2.359 3.401 11.584 11.584 0 01-3.401 2.367l-2.455-2.455a2.367 2.367 0 00-1.68-.697c-.635 0-1.232.249-1.68.697l-3.361 3.355a2.37 2.37 0 00-.697 1.681c0 .636.249 1.234.697 1.682l3.114 3.114a3.85 3.85 0 002.716 1.125c.214 0 .419-.017.621-.052 3.95-.65 7.866-2.751 11.027-5.91 3.159-3.155 5.256-7.069 5.915-11.03a3.856 3.856 0 00-1.075-3.334z"/></svg></svg>