<svg width="172" height="172" viewBox="0 0 172 172" fill="none" xmlns="http://www.w3.org/2000/svg">
<path d="M59.125 123.624C57.6995 123.624 56.3323 123.058 55.3243 122.05C54.3163 121.042 53.75 119.675 53.75 118.249V53.7491C53.7505 52.8332 53.985 51.9327 54.4313 51.1329C54.8775 50.3331 55.5207 49.6607 56.2999 49.1793C57.079 48.6979 57.9682 48.4236 58.8832 48.3824C59.7981 48.3412 60.7084 48.5344 61.5276 48.9438L126.028 81.1938C126.919 81.6407 127.669 82.3268 128.193 83.1755C128.717 84.0241 128.994 85.0018 128.994 85.9991C128.994 86.9964 128.717 87.9741 128.193 88.8227C127.669 89.6713 126.919 90.3575 126.028 90.8043L61.5276 123.054C60.7817 123.428 59.9592 123.623 59.125 123.624ZM64.5 62.4458V109.552L111.606 85.9991L64.5 62.4458Z" fill="#FAFEFD"/>
<path d="M86 21.5C98.7569 21.5 111.227 25.2829 121.834 32.3702C132.441 39.4576 140.708 49.5311 145.59 61.3169C150.472 73.1028 151.749 86.0716 149.261 98.5833C146.772 111.095 140.629 122.588 131.608 131.608C122.588 140.629 111.095 146.772 98.5833 149.261C86.0715 151.749 73.1027 150.472 61.3169 145.59C49.5311 140.708 39.4575 132.441 32.3702 121.834C25.2828 111.227 21.5 98.7569 21.5 86C21.5 68.8935 28.2955 52.4877 40.3916 40.3916C52.4877 28.2955 68.8935 21.5 86 21.5ZM86 10.75C71.1169 10.75 56.5681 15.1633 44.1933 23.4319C31.8185 31.7005 22.1735 43.4529 16.478 57.2031C10.7825 70.9532 9.29234 86.0835 12.1959 100.681C15.0994 115.278 22.2663 128.686 32.7902 139.21C43.3141 149.734 56.7224 156.901 71.3194 159.804C85.9165 162.708 101.047 161.217 114.797 155.522C128.547 149.826 140.299 140.181 148.568 127.807C156.837 115.432 161.25 100.883 161.25 86C161.25 66.0425 153.322 46.9023 139.21 32.7902C125.098 18.6781 105.958 10.75 86 10.75Z" fill="#FAFEFD"/>
</svg>
